<svg width="32" height="32" viewBox="0 0 100 100" fill="none" xmlns="http://www.w3.org/2000/svg">
  <rect width="100" height="100" rx="20" fill="#0A0A0A"/>
  <path d="M46.17 33.4C44.05 28.29 41.14 24.01 37.23 20.1C33.32 16.19 28.68 13.09 23.57 10.97C18.46 8.86 12.99 7.77 7.45 7.77L7.45 49.88L7.45 92C12.99 92 18.46 90.91 23.57 88.79C28.68 86.67 33.32 83.57 37.23 79.66C41.14 75.75 44.03 71.56 46.15 66.45" stroke="#FFD600" stroke-width="3.5"/>
  <circle cx="33.61" cy="49.88" r="26.09" stroke="#F0F0F0" stroke-width="3.5"/>
  <circle cx="65.52" cy="49.88" r="26.09" stroke="#F0F0F0" stroke-width="3.5"/>
  <path d="M53.01 66.45C55.13 71.56 57.99 75.75 61.9 79.66C65.81 83.57 70.46 86.67 75.57 88.79C80.68 90.91 86.15 92 91.68 92L91.68 49.88L91.68 7.77C86.15 7.77 80.68 8.86 75.57 10.97C70.46 13.09 65.81 16.19 61.9 20.1C58.16 23.84 55.16 28.25 53.06 33.1" stroke="#F0F0F0" stroke-width="3.5"/>
  <circle cx="49.57" cy="49.88" r="4.78" stroke="#FFD600" stroke-width="3.5" stroke-linecap="round" stroke-linejoin="bevel"/>
</svg>
